<svg xmlns="http://www.w3.org/2000/svg" viewBox="0 0 346.4 347.5" style="enable-background:new 0 0 346.39999 347.5" xml:space="preserve"><path d="m228 241.9 10.5-22.1c3.2-7.4 12.6-10.5 20-6.3l69.5 35.8c7.4 3.2 11.6 11.6 10.5 20-2.1 20-12.6 56.9-57.9 67.4-47.4 10.5-103.2-10.5-149.6-42.1-30.5-20-54.8-46.3-75.8-75.8C22.7 171.3.5 114.5 10 66c9.5-46.3 47.4-55.8 69.5-57.9 7.4-1.1 14.7 3.2 17.9 10.5l37.9 72.7c3.2 7.4 1.1 16.9-6.3 19l-22.1 10.5c-10.5 5.3-12.6 19-6.3 28.4 11.6 16.9 26.3 35.8 46.3 54.8 17.9 17.9 36.9 32.7 53.7 44.2 7.4 6.3 21.1 3.2 27.4-6.3z" style="fill:#231f20"/></svg>